<?xml version="1.0" standalone="no"?>
<!DOCTYPE svg PUBLIC "-//W3C//DTD SVG 20010904//EN"
 "http://www.w3.org/TR/2001/REC-SVG-20010904/DTD/svg10.dtd">
<svg version="1.0" xmlns="http://www.w3.org/2000/svg"
 width="1024.000000pt" height="1024.000000pt" viewBox="0 0 1024.000000 1024.000000"
 preserveAspectRatio="xMidYMid meet">
<metadata>
Created by potrace 1.11, written by Peter Selinger 2001-2013
</metadata>
<g transform="translate(0.000000,1024.000000) scale(0.100000,-0.100000)"
fill="#000000" stroke="none">
<path d="M1357 6883 c-4 -7 99 -314 123 -368 5 -11 18 -49 31 -85 12 -36 46
-135 76 -220 30 -85 76 -218 103 -295 125 -363 142 -411 150 -430 5 -11 18
-49 31 -85 12 -36 46 -135 76 -220 30 -85 70 -200 89 -255 19 -55 46 -131 59
-170 13 -38 42 -122 65 -185 23 -63 52 -146 65 -185 13 -38 48 -140 78 -225
92 -259 107 -303 107 -307 0 -2 139 -3 310 -3 l309 0 10 33 c5 17 28 84 51
147 23 63 45 126 50 140 4 14 37 108 73 210 35 102 74 214 86 250 13 36 26 74
31 85 5 11 18 47 29 80 11 33 50 146 86 250 37 105 87 249 111 320 25 72 49
139 54 150 5 11 18 49 31 85 32 97 92 267 149 430 29 80 58 163 65 185 7 22
43 126 80 230 37 105 71 201 75 215 4 14 24 69 43 122 19 53 33 99 29 102 -3
3 -144 6 -313 6 l-309 0 -6 -27 c-6 -26 -57 -189 -109 -348 -13 -38 -47 -144
-75 -235 -29 -91 -62 -196 -75 -235 -12 -38 -48 -151 -80 -250 -31 -99 -74
-234 -95 -300 -47 -147 -88 -278 -100 -325 -15 -58 -42 -153 -50 -180 -4 -14
-39 -138 -76 -277 -38 -139 -72 -249 -77 -244 -7 7 -35 103 -87 296 -12 44
-28 105 -37 135 -22 81 -30 109 -46 170 -46 170 -53 193 -197 645 -22 66 -51
158 -66 205 -14 47 -41 130 -59 185 -18 55 -56 172 -84 260 -84 268 -109 346
-138 437 l-28 88 -307 0 c-169 0 -309 -3 -311 -7z"/>
<path d="M4454 5880 c-300 -68 -496 -271 -575 -596 -31 -126 -31 -360 -1 -491
70 -305 252 -508 527 -588 80 -23 108 -26 245 -26 120 0 173 4 235 19 99 25
195 60 225 82 l22 17 -31 99 c-17 55 -31 104 -31 109 0 6 -4 16 -9 23 -6 11
-19 8 -62 -11 -178 -81 -351 -98 -495 -51 -148 48 -231 137 -290 309 -26 75
-27 91 -28 255 -1 196 10 249 72 372 63 126 168 196 331 224 80 14 99 14 185
0 53 -8 134 -30 181 -49 47 -19 87 -31 90 -27 2 3 14 38 26 76 11 38 27 86 35
107 19 52 19 54 -23 75 -167 84 -438 115 -629 72z"/>
<path d="M5815 5884 c-187 -37 -333 -129 -440 -279 -60 -85 -99 -173 -130
-300 -24 -97 -28 -129 -28 -270 0 -141 4 -173 28 -269 15 -60 31 -116 35 -125
5 -9 23 -46 40 -83 66 -136 170 -238 315 -307 119 -57 195 -73 360 -73 167 1
242 16 365 75 70 33 101 56 175 131 74 74 99 107 132 176 54 112 81 208 98
357 12 106 12 139 -1 240 -17 139 -32 205 -67 291 -94 233 -281 388 -531 437
-94 18 -255 18 -351 -1z m267 -259 c97 -21 153 -49 211 -107 123 -123 183
-388 143 -633 -25 -160 -61 -240 -145 -328 -76 -80 -172 -117 -304 -117 -123
0 -215 36 -295 116 -57 58 -98 136 -128 245 -26 94 -26 365 0 469 51 199 160
317 328 354 86 18 105 18 190 1z"/>
<path d="M7035 5858 c-3 -7 -4 -382 -3 -833 l3 -820 150 0 150 0 0 495 c0 272
-3 542 -7 600 l-8 105 44 -125 c48 -138 51 -147 76 -205 10 -22 43 -101 75
-175 31 -74 63 -148 70 -165 36 -82 64 -146 90 -208 l28 -67 156 2 155 3 93
220 c52 121 102 238 112 260 66 144 161 402 161 437 0 10 5 18 11 18 7 0 9
-15 6 -42 -22 -167 -27 -329 -25 -718 l3 -435 146 -3 c115 -2 149 0 158 11 8
11 10 227 9 833 l-3 819 -181 3 -182 2 -21 -45 c-11 -24 -21 -47 -21 -50 0 -2
-11 -28 -24 -57 -52 -113 -86 -190 -86 -193 0 -2 -13 -32 -29 -67 -16 -35 -41
-91 -55 -126 -15 -34 -40 -93 -57 -130 -80 -173 -159 -395 -159 -445 0 -27
-24 -15 -28 14 -5 38 -63 219 -89 279 -14 30 -30 69 -38 85 -7 17 -45 104 -85
195 -40 91 -83 190 -97 220 -14 30 -33 75 -43 100 -10 25 -34 80 -54 123 -20
43 -36 83 -36 88 0 15 -360 12 -365 -3z"/>
<path d="M8525 3734 c-11 -2 -270 -8 -575 -14 -692 -14 -1773 -37 -2320 -50
-228 -6 -725 -17 -1105 -25 -379 -8 -996 -22 -1370 -30 -374 -8 -893 -19
-1154 -24 -261 -6 -478 -14 -483 -19 -5 -5 -7 -56 -6 -113 l3 -104 3698 -3
3697 -2 0 195 0 195 -182 -1 c-101 -1 -192 -3 -203 -5z"/>
</g>
</svg>
